<svg width="13" height="13" viewBox="0 0 13 13" fill="none" xmlns="http://www.w3.org/2000/svg">
<g clip-path="url(#clip0_6_5632)">
<rect x="0.138184" y="0.0999756" width="12" height="12" rx="6" fill="#E4E6EB"/>
<path d="M3.66849 4.06968C3.52704 3.93307 3.33759 3.85745 3.14094 3.85916C2.9443 3.86087 2.75618 3.93974 2.61712 4.07879C2.47807 4.21785 2.3992 4.40597 2.39749 4.60261C2.39578 4.79926 2.47137 4.98869 2.60799 5.13014L5.60799 8.13014C5.74864 8.27074 5.93937 8.34977 6.13824 8.34977C6.33712 8.34977 6.52785 8.27074 6.66849 8.13014L9.66849 5.13014C9.80511 4.98869 9.8807 4.79926 9.879 4.60261C9.87729 4.40597 9.79842 4.21785 9.65936 4.07879C9.5203 3.93974 9.33219 3.86087 9.13554 3.85916C8.93889 3.85745 8.74944 3.93307 8.60799 4.06968L6.13824 6.53941L3.66849 4.06968Z" fill="black"/>
</g>
<defs>
<clipPath id="clip0_6_5632">
<rect x="0.138184" y="0.0999756" width="12" height="12" rx="6" fill="white"/>
</clipPath>
</defs>
</svg>
