<svg width="437" height="154" viewBox="0 0 437 154" fill="none" xmlns="http://www.w3.org/2000/svg">
<path d="M71.1288 54.1909C67.0046 54.1909 65.8122 56.0218 65.8122 60.06V66.759H76.813L75.7103 77.5818H65.8165V110.427H52.6147V77.5818H43.7209V66.759H52.6147V60.2439C52.6147 49.327 57.0125 43.5606 69.2825 43.5606C71.8538 43.5546 74.4229 43.7074 76.9754 44.0183V54.2037L71.1288 54.1909Z" fill="#1877F2"/>
<path d="M77.7275 87.2153C77.7275 75.0151 83.5014 65.8264 95.6006 65.8264C102.199 65.8264 106.229 69.223 108.157 73.4409V66.759H120.803V110.427H108.157V103.822C106.324 108.044 102.199 111.346 95.6006 111.346C83.5014 111.346 77.7275 102.17 77.7275 89.9574V87.2153ZM90.925 90.1542C90.925 96.6649 93.3055 100.977 99.447 100.977C104.858 100.977 107.606 97.0328 107.606 90.7958V86.4111C107.606 80.1741 104.858 76.23 99.447 76.23C93.3055 76.23 90.925 80.542 90.925 87.0528V90.1542Z" fill="#1877F2"/>
<path d="M148.301 65.8393C153.429 65.8393 158.289 66.943 160.947 68.7739L158.015 78.1336C155.265 76.8229 152.261 76.1336 149.215 76.1145C142.065 76.1145 138.958 80.2426 138.958 87.3095V89.8761C138.958 96.943 142.074 101.071 149.215 101.071C152.261 101.052 155.265 100.363 158.015 99.052L160.947 108.407C158.289 110.243 153.434 111.346 148.301 111.346C132.808 111.346 125.752 102.996 125.752 89.6024V87.5832C125.752 74.1895 132.808 65.8393 148.301 65.8393Z" fill="#1877F2"/>
<path d="M162.686 90.2611V86.4111C162.686 74.0269 169.742 65.8778 184.137 65.8778C197.702 65.8778 203.659 74.1339 203.659 86.2443V93.2171H175.88C176.157 99.1803 178.816 101.841 186.137 101.841C191.09 101.841 196.313 100.832 200.163 99.1803L202.578 108.228C199.095 110.067 191.945 111.44 185.624 111.44C168.918 111.436 162.686 103.094 162.686 90.2611ZM175.884 84.5717H191.834V83.4723C191.834 78.7026 189.91 74.9167 184.141 74.9167C178.179 74.921 175.884 78.6854 175.884 84.5546V84.5717Z" fill="#1877F2"/>
<path d="M252.581 89.9702C252.581 102.17 246.718 111.359 234.631 111.359C228.033 111.359 223.451 108.057 221.618 103.834V110.439H209.155V44.8311L222.353 43.6333V72.8078C224.276 68.9578 228.494 65.835 234.636 65.835C246.735 65.835 252.586 75.0108 252.586 87.2239L252.581 89.9702ZM239.384 86.9416C239.384 80.7944 237.003 76.2086 230.678 76.2086C225.268 76.2086 222.336 80.0586 222.336 86.2999V90.8857C222.336 97.1227 225.268 100.977 230.678 100.977C237.003 100.977 239.384 96.3912 239.384 90.244V86.9416Z" fill="#1877F2"/>
<path d="M256.996 89.6922V87.4934C256.996 74.921 264.146 65.8393 278.72 65.8393C293.294 65.8393 300.448 74.921 300.448 87.4934V89.6922C300.448 102.26 293.298 111.346 278.724 111.346C264.151 111.346 256.996 102.26 256.996 89.6922ZM287.246 86.5737C287.246 80.7944 284.861 76.2086 278.699 76.2086C272.536 76.2086 270.172 80.7944 270.172 86.5737V90.6119C270.172 96.3912 272.557 100.977 278.699 100.977C284.84 100.977 287.246 96.3912 287.246 90.6119V86.5737Z" fill="#1877F2"/>
<path d="M304.837 89.6922V87.4934C304.837 74.921 311.987 65.8393 326.561 65.8393C341.134 65.8393 348.285 74.921 348.285 87.4934V89.6922C348.285 102.26 341.134 111.346 326.561 111.346C311.987 111.346 304.837 102.26 304.837 89.6922ZM335.087 86.5737C335.087 80.7944 332.702 76.2086 326.561 76.2086C320.419 76.2086 318.039 80.7944 318.039 86.5737V90.6119C318.039 96.3912 320.419 100.977 326.561 100.977C332.702 100.977 335.087 96.3912 335.087 90.6119V86.5737Z" fill="#1877F2"/>
<path d="M366.431 87.5832L379.445 66.759H393.467L379.812 88.319L394.018 110.427H379.996L366.431 89.0377V110.427H353.229V44.8311L366.431 43.6333V87.5832Z" fill="#1877F2"/>
</svg>
