<svg width="35" height="35" viewBox="0 0 35 35" fill="none" xmlns="http://www.w3.org/2000/svg">
<path d="M18.375 7C19.5353 7 20.6481 7.46094 21.4686 8.28141C22.2891 9.10188 22.75 10.2147 22.75 11.375V23.625C22.7502 24.6336 22.4019 25.6112 21.7641 26.3925C21.1263 27.1738 20.2382 27.7108 19.25 27.9125V21.875C19.25 20.2505 18.6047 18.6926 17.456 17.544C16.3074 16.3953 14.7495 15.75 13.125 15.75H6.125C5.18525 15.75 4.29625 15.96 3.5 16.3398V11.375C3.5 10.2147 3.96094 9.10188 4.78141 8.28141C5.60188 7.46094 6.71468 7 7.875 7H18.375ZM24.5 21.1435V13.8775L29.3475 9.82975C29.539 9.67023 29.772 9.56854 30.0192 9.53658C30.2664 9.50461 30.5175 9.54369 30.7433 9.64925C30.9691 9.7548 31.1602 9.92246 31.2942 10.1326C31.4282 10.3428 31.4996 10.5868 31.5 10.836V24.255C31.4996 24.5054 31.4275 24.7505 31.2924 24.9613C31.1572 25.1721 30.9646 25.3398 30.7371 25.4447C30.5097 25.5496 30.2571 25.5872 30.009 25.5532C29.7609 25.5191 29.5277 25.4148 29.337 25.2525L24.5 21.1435ZM1.75 21.875C1.75 20.7147 2.21094 19.6019 3.03141 18.7814C3.85188 17.9609 4.96468 17.5 6.125 17.5H13.125C14.2853 17.5 15.3981 17.9609 16.2186 18.7814C17.0391 19.6019 17.5 20.7147 17.5 21.875V28.875C17.5 30.0353 17.0391 31.1481 16.2186 31.9686C15.3981 32.7891 14.2853 33.25 13.125 33.25H6.125C4.96468 33.25 3.85188 32.7891 3.03141 31.9686C2.21094 31.1481 1.75 30.0353 1.75 28.875V21.875ZM8.785 21.9345C8.67152 21.8566 8.53967 21.8096 8.40247 21.7983C8.26528 21.7869 8.1275 21.8115 8.00275 21.8697C7.90031 21.9144 7.80757 21.9786 7.72975 22.0587C7.56672 22.2258 7.47563 22.4501 7.476 22.6835V28.0648C7.47483 28.1808 7.49666 28.2959 7.54021 28.4034C7.58376 28.5109 7.64818 28.6088 7.72975 28.6912C7.81018 28.7708 7.90371 28.8359 8.00625 28.8837C8.18381 28.9651 8.38526 28.9776 8.5715 28.9187C8.65219 28.8922 8.72877 28.8545 8.799 28.8068L12.817 26.0645C12.9392 25.9839 13.0377 25.8721 13.1023 25.7407C13.1687 25.6084 13.2029 25.4621 13.202 25.314C13.2011 25.1659 13.1651 25.0201 13.097 24.8885C13.0281 24.7588 12.9268 24.6491 12.803 24.57L8.785 21.9345Z" fill="#D83030"/>
</svg>
