<svg width="34" height="35" viewBox="0 0 34 35" fill="none" xmlns="http://www.w3.org/2000/svg">
<path fill-rule="evenodd" clip-rule="evenodd" d="M17 34.3493C7.6109 34.3493 0 26.6602 0 17.1746C0 7.68908 7.6109 0 17 0C26.3891 0 34 7.68908 34 17.1746C34 26.6602 26.3891 34.3493 17 34.3493ZM23.8 18.8921C23.8 20.7141 23.0836 22.4615 21.8083 23.7498C20.5331 25.0382 18.8035 25.762 17 25.762C15.1965 25.762 13.4669 25.0382 12.1917 23.7498C10.9164 22.4615 10.2 20.7141 10.2 18.8921H23.8ZM17 30.9143C20.6069 30.9143 24.0662 29.4668 26.6167 26.8901C29.1671 24.3134 30.6 20.8186 30.6 17.1746C30.6 13.5306 29.1671 10.0359 26.6167 7.45919C24.0662 4.8825 20.6069 3.43493 17 3.43493C13.3931 3.43493 9.93384 4.8825 7.38335 7.45919C4.83285 10.0359 3.4 13.5306 3.4 17.1746C3.4 20.8186 4.83285 24.3134 7.38335 26.8901C9.93384 29.4668 13.3931 30.9143 17 30.9143ZM12.75 15.4572C13.4263 15.4572 14.0749 15.1858 14.5531 14.7026C15.0313 14.2195 15.3 13.5642 15.3 12.881C15.3 12.1977 15.0313 11.5425 14.5531 11.0593C14.0749 10.5762 13.4263 10.3048 12.75 10.3048C12.0737 10.3048 11.4251 10.5762 10.9469 11.0593C10.4687 11.5425 10.2 12.1977 10.2 12.881C10.2 13.5642 10.4687 14.2195 10.9469 14.7026C11.4251 15.1858 12.0737 15.4572 12.75 15.4572ZM21.25 15.4572C21.9263 15.4572 22.5749 15.1858 23.0531 14.7026C23.5313 14.2195 23.8 13.5642 23.8 12.881C23.8 12.1977 23.5313 11.5425 23.0531 11.0593C22.5749 10.5762 21.9263 10.3048 21.25 10.3048C20.5737 10.3048 19.9251 10.5762 19.4469 11.0593C18.9687 11.5425 18.7 12.1977 18.7 12.881C18.7 13.5642 18.9687 14.2195 19.4469 14.7026C19.9251 15.1858 20.5737 15.4572 21.25 15.4572Z" fill="#ABA357"/>
</svg>
