<svg width="32" height="35" viewBox="0 0 32 35" fill="none" xmlns="http://www.w3.org/2000/svg">
<path d="M1.23235 0C0.553327 0 0 0.596163 0 1.32776V22.5719C0 23.3034 0.553327 23.8996 1.23235 23.8996H20.95C21.6291 23.8996 22.1824 23.3034 22.1824 22.5719V1.32776C22.1824 0.596163 21.6291 0 20.95 0H1.23235ZM2.46471 2.65551H19.7177V18.5886H2.46471V2.65551ZM23.4147 3.85846V6.55513L25.649 6.97072L23.4147 20.9122V22.5719C23.4147 24.0377 22.3093 25.2274 20.95 25.2274H7.89447L23.5306 28.1325C23.8523 28.1926 24.1831 28.1127 24.4502 27.9103C24.7173 27.708 24.8989 27.3996 24.9552 27.053L28.2678 6.09971C28.2957 5.92795 28.292 5.75192 28.2568 5.58171C28.2216 5.4115 28.1555 5.25044 28.0625 5.10775C27.9694 4.96507 27.8512 4.84355 27.7145 4.75016C27.5778 4.65677 27.4253 4.59334 27.2659 4.5635L23.4147 3.85979V3.85846ZM11.0912 5.22738C9.67275 5.22738 8.47244 6.27896 8.47244 8.25732C8.47244 9.55055 9.00728 10.8491 9.743 11.659C10.0314 12.469 9.54089 12.777 9.43491 12.8208C7.94869 13.3997 6.19998 14.4739 6.19998 15.5175V17.2197H15.9824V15.5188C15.9824 14.4433 14.23 13.3758 12.6698 12.8208C12.5984 12.7956 12.1559 12.5818 12.4394 11.659C13.1726 10.8491 13.7482 9.54391 13.7482 8.25732C13.7482 6.27896 12.5096 5.22738 11.0912 5.22738ZM28.8445 10.4986L28.4218 13.1116L29.3066 13.3187L25.9177 28.8375L25.4173 28.7127C25.1425 29.0045 24.8066 29.2209 24.4379 29.3436C24.0692 29.4663 23.6786 29.4917 23.2989 29.4178L6.23941 26.2643L5.89066 27.843C5.81804 28.1893 5.87411 28.5524 6.04685 28.8546C6.21959 29.1569 6.49529 29.3743 6.81492 29.4603L25.9941 34.3159C26.3154 34.3941 26.6524 34.3337 26.933 34.1476C27.2135 33.9615 27.4153 33.6644 27.4951 33.32L31.9648 12.6535C32.1213 11.9418 31.743 11.2049 31.08 11.035L28.8457 10.4959L28.8445 10.4986Z" fill="#2EAE5A"/>
</svg>
